<?xml version="1.0" encoding="UTF-8"?>
<svg version="1.1" xmlns="http://www.w3.org/2000/svg" width="512" height="444">
<path d="M0 0 C0.70422773 -0.00367669 1.40845546 -0.00735338 2.13402343 -0.01114148 C4.49371428 -0.02215425 6.85336106 -0.02601805 9.21307373 -0.02983093 C10.90509683 -0.03609737 12.59711856 -0.04274433 14.28913879 -0.04974365 C19.84547979 -0.07076373 25.401821 -0.0811436 30.95819092 -0.09111023 C32.87231206 -0.09515844 34.78643305 -0.09927539 36.70055389 -0.10346031 C45.69310371 -0.12250686 54.68564534 -0.13673945 63.67821145 -0.14507228 C74.05328058 -0.15484539 84.42813641 -0.18116911 94.80313039 -0.22157317 C102.82620144 -0.2517443 110.84921138 -0.26654207 118.87233806 -0.26985329 C123.66251898 -0.27220248 128.45247187 -0.28114604 133.24259186 -0.30631447 C137.75048171 -0.32961787 142.25799376 -0.33381933 146.76592827 -0.32355309 C148.41706792 -0.32305818 150.06822633 -0.32936531 151.71930885 -0.34310913 C161.28817847 -0.41828212 168.28575324 -0.19545754 176.21209717 5.82295227 C176.74190186 6.36306946 177.27170654 6.90318665 177.81756592 7.45967102 C178.36026123 7.99205383 178.90295654 8.52443665 179.46209717 9.07295227 C184.88965304 16.36923624 184.43310151 23.71913732 184.39274597 32.48822021 C184.3969211 33.96111792 184.4023996 35.43401241 184.40906578 36.90690094 C184.42351569 40.94606673 184.41927713 44.98502839 184.41189897 49.02420533 C184.40716849 53.38353205 184.41967607 57.74281453 184.42991638 62.10212708 C184.44711187 70.63905081 184.44794286 79.17590096 184.44270348 87.71283751 C184.43866206 94.6514926 184.440105 101.59012594 184.44545174 108.52877998 C184.44620016 109.51632573 184.44694858 110.50387148 184.44771968 111.52134286 C184.44925116 113.52753528 184.4507895 115.53372769 184.45233465 117.5399201 C184.46606232 136.35315972 184.46062004 155.16635777 184.44914944 173.97959644 C184.43921603 191.19091494 184.45215912 208.40212595 184.47608363 225.61342787 C184.50046572 243.28709325 184.51008473 260.96070855 184.5034309 278.63439041 C184.4999368 288.55640639 184.5021834 298.47833968 184.51968193 308.40034294 C184.53439274 316.84639915 184.53505399 325.29231444 184.51761102 333.73836785 C184.50908954 338.04723783 184.50697942 342.35585596 184.52226257 346.66471291 C184.53608549 350.61073581 184.53137769 354.55629055 184.51202334 358.5022862 C184.50825564 359.92818427 184.51120755 361.35411961 184.52163499 362.77998453 C184.58301446 371.81718394 184.18389641 378.27904891 178.11053467 385.35420227 C177.47760498 385.88400696 176.84467529 386.41381165 176.19256592 386.95967102 C175.56737061 387.50236633 174.94217529 388.04506165 174.29803467 388.60420227 C166.37269443 393.93726768 159.30965374 393.44356199 149.9911499 393.16694641 C148.45843083 393.13334882 146.92567245 393.10150583 145.3928833 393.0712738 C142.08736137 393.00508096 138.78209152 392.93186122 135.47680473 392.85486031 C130.16874807 392.73678935 124.86074532 392.66847629 119.55171204 392.61236572 C118.64749352 392.60270548 117.74327501 392.59304525 116.81165594 392.58309227 C114.02261533 392.55381096 111.23356831 392.52522362 108.44451904 392.4967804 C97.0442154 392.38015819 85.64828814 392.23262715 74.25140381 391.92329407 C25.18009074 390.62491629 -15.13757021 394.73949815 -60.20356274 414.96509171 C-70.11830337 419.41224717 -80.16226056 423.38422954 -90.3447876 427.17671204 C-91.05575549 427.4415479 -91.76672338 427.70638376 -92.49923575 427.97924495 C-95.88548202 429.23851114 -99.27380755 430.49205174 -102.66317368 431.74289227 C-109.03177233 434.09739167 -115.37543521 436.51789182 -121.72149658 438.93232727 C-123.83163334 439.73332703 -125.94181246 440.53421519 -128.05206299 441.33491516 C-128.91570465 441.66286575 -129.77934631 441.99081635 -130.66915894 442.32870483 C-135.23706516 443.93620193 -139.11540347 444.27783162 -143.98986816 444.29434204 C-144.6940959 444.29801873 -145.39832363 444.30169542 -146.12389159 444.30548352 C-148.48358244 444.31649629 -150.84322922 444.32036009 -153.20294189 444.32417297 C-154.894965 444.33043941 -156.58698673 444.33708637 -158.27900696 444.34408569 C-163.83534795 444.36510577 -169.39168916 444.37548564 -174.94805908 444.38545227 C-176.86218022 444.38950049 -178.77630121 444.39361743 -180.69042206 444.39780235 C-189.68297188 444.4168489 -198.67551351 444.4310815 -207.66807961 444.43941432 C-218.04314875 444.44918743 -228.41800458 444.47551115 -238.79299855 444.51591522 C-246.81606961 444.54608634 -254.83907954 444.56088412 -262.86220622 444.56419533 C-267.65238714 444.56654452 -272.44234003 444.57548808 -277.23246002 444.60065651 C-281.74034988 444.62395992 -286.24786192 444.62816137 -290.75579643 444.61789513 C-292.40693609 444.61740022 -294.05809449 444.62370735 -295.70917702 444.63745117 C-305.27804664 444.71262416 -312.27562141 444.48979958 -320.20196533 438.47138977 C-320.73177002 437.93127258 -321.26157471 437.3911554 -321.80743408 436.83467102 C-322.35012939 436.30228821 -322.89282471 435.7699054 -323.45196533 435.22138977 C-328.8795212 427.9251058 -328.42296967 420.57520472 -328.38261414 411.80612183 C-328.38678926 410.33322412 -328.39226776 408.86032964 -328.39893395 407.3874411 C-328.41338385 403.34827531 -328.40914529 399.30931365 -328.40176713 395.27013671 C-328.39703665 390.91080999 -328.40954423 386.55152751 -328.41978455 382.19221497 C-328.43698004 373.65529124 -328.43781103 365.11844108 -328.43257164 356.58150453 C-328.42853023 349.64284944 -328.42997316 342.7042161 -328.4353199 335.76556206 C-328.43606832 334.77801631 -328.43681674 333.79047056 -328.43758785 332.77299918 C-328.43911932 330.76680676 -328.44065767 328.76061435 -328.44220281 326.75442194 C-328.45593049 307.94118232 -328.45048821 289.12798428 -328.4390176 270.3147456 C-328.42908419 253.1034271 -328.44202729 235.89221609 -328.46595179 218.68091417 C-328.49033389 201.00724879 -328.4999529 183.33363349 -328.49329907 165.65995163 C-328.48980497 155.73793565 -328.49205156 145.81600236 -328.50955009 135.8939991 C-328.5242609 127.4479429 -328.52492215 119.0020276 -328.50747918 110.55597419 C-328.4989577 106.24710422 -328.49684759 101.93848608 -328.51213074 97.62962914 C-328.52595365 93.68360623 -328.52124585 89.73805149 -328.5018915 85.79205584 C-328.4981238 84.36615778 -328.50107571 82.94022243 -328.51150315 81.51435751 C-328.57288262 72.4771581 -328.17376457 66.01529314 -322.10040283 58.94013977 C-321.46747314 58.41033508 -320.83454346 57.8805304 -320.18243408 57.33467102 C-319.24464111 56.52062805 -319.24464111 56.52062805 -318.28790283 55.69013977 C-310.36256259 50.35707436 -303.2995219 50.85078006 -293.98101807 51.12739563 C-292.44829899 51.16099323 -290.91554061 51.19283621 -289.38275146 51.22306824 C-286.07722953 51.28926108 -282.77195969 51.36248082 -279.4666729 51.43948174 C-274.15861623 51.55755269 -268.85061348 51.62586575 -263.5415802 51.68197632 C-262.63736169 51.69163656 -261.73314318 51.7012968 -260.8015241 51.71124977 C-258.0124835 51.74053108 -255.22343648 51.76911842 -252.43438721 51.79756165 C-241.03408357 51.91418385 -229.6381563 52.0617149 -218.24127197 52.37104797 C-169.1699589 53.66942575 -128.85229795 49.55484389 -83.78630543 29.32925034 C-73.87156479 24.88209487 -63.8276076 20.9101125 -53.64508057 17.11763 C-52.93411268 16.85279414 -52.22314479 16.58795828 -51.49063241 16.31509709 C-48.10438614 15.0558309 -44.71606061 13.8022903 -41.32669449 12.55144978 C-34.95809583 10.19695037 -28.61443296 7.77645022 -22.26837158 5.36201477 C-20.15823483 4.56101502 -18.0480557 3.76012685 -15.93780518 2.95942688 C-15.07416351 2.63147629 -14.21052185 2.3035257 -13.32070923 1.96563721 C-8.752803 0.35814011 -4.8744647 0.01651042 0 0 Z " fill="#020200" transform="translate(327.99493408203125,-0.1471710205078125)"/>
<path d="M0 0 C0.70422773 -0.00367669 1.40845546 -0.00735338 2.13402343 -0.01114148 C4.49371428 -0.02215425 6.85336106 -0.02601805 9.21307373 -0.02983093 C10.90509683 -0.03609737 12.59711856 -0.04274433 14.28913879 -0.04974365 C19.84547979 -0.07076373 25.401821 -0.0811436 30.95819092 -0.09111023 C32.87231206 -0.09515844 34.78643305 -0.09927539 36.70055389 -0.10346031 C45.69310371 -0.12250686 54.68564534 -0.13673945 63.67821145 -0.14507228 C74.05328058 -0.15484539 84.42813641 -0.18116911 94.80313039 -0.22157317 C102.82620144 -0.2517443 110.84921138 -0.26654207 118.87233806 -0.26985329 C123.66251898 -0.27220248 128.45247187 -0.28114604 133.24259186 -0.30631447 C137.75048171 -0.32961787 142.25799376 -0.33381933 146.76592827 -0.32355309 C148.41706792 -0.32305818 150.06822633 -0.32936531 151.71930885 -0.34310913 C161.28817847 -0.41828212 168.28575324 -0.19545754 176.21209717 5.82295227 C176.74190186 6.36306946 177.27170654 6.90318665 177.81756592 7.45967102 C178.36026123 7.99205383 178.90295654 8.52443665 179.46209717 9.07295227 C184.88965304 16.36923624 184.43310151 23.71913732 184.39274597 32.48822021 C184.3969211 33.96111792 184.4023996 35.43401241 184.40906578 36.90690094 C184.42351569 40.94606673 184.41927713 44.98502839 184.41189897 49.02420533 C184.40716849 53.38353205 184.41967607 57.74281453 184.42991638 62.10212708 C184.44711187 70.63905081 184.44794286 79.17590096 184.44270348 87.71283751 C184.43866206 94.6514926 184.440105 101.59012594 184.44545174 108.52877998 C184.44620016 109.51632573 184.44694858 110.50387148 184.44771968 111.52134286 C184.44925116 113.52753528 184.4507895 115.53372769 184.45233465 117.5399201 C184.46606232 136.35315972 184.46062004 155.16635777 184.44914944 173.97959644 C184.43921603 191.19091494 184.45215912 208.40212595 184.47608363 225.61342787 C184.50046572 243.28709325 184.51008473 260.96070855 184.5034309 278.63439041 C184.4999368 288.55640639 184.5021834 298.47833968 184.51968193 308.40034294 C184.53439274 316.84639915 184.53505399 325.29231444 184.51761102 333.73836785 C184.50908954 338.04723783 184.50697942 342.35585596 184.52226257 346.66471291 C184.53608549 350.61073581 184.53137769 354.55629055 184.51202334 358.5022862 C184.50825564 359.92818427 184.51120755 361.35411961 184.52163499 362.77998453 C184.58301446 371.81718394 184.18389641 378.27904891 178.11053467 385.35420227 C177.47760498 385.88400696 176.84467529 386.41381165 176.19256592 386.95967102 C175.56737061 387.50236633 174.94217529 388.04506165 174.29803467 388.60420227 C166.37269443 393.93726768 159.30965374 393.44356199 149.9911499 393.16694641 C148.45843083 393.13334882 146.92567245 393.10150583 145.3928833 393.0712738 C142.08736137 393.00508096 138.78209152 392.93186122 135.47680473 392.85486031 C130.16874807 392.73678935 124.86074532 392.66847629 119.55171204 392.61236572 C118.64749352 392.60270548 117.74327501 392.59304525 116.81165594 392.58309227 C114.02261533 392.55381096 111.23356831 392.52522362 108.44451904 392.4967804 C97.0442154 392.38015819 85.64828814 392.23262715 74.25140381 391.92329407 C25.18009074 390.62491629 -15.13757021 394.73949815 -60.20356274 414.96509171 C-70.11830337 419.41224717 -80.16226056 423.38422954 -90.3447876 427.17671204 C-91.05575549 427.4415479 -91.76672338 427.70638376 -92.49923575 427.97924495 C-95.88548202 429.23851114 -99.27380755 430.49205174 -102.66317368 431.74289227 C-109.03177233 434.09739167 -115.37543521 436.51789182 -121.72149658 438.93232727 C-123.83163334 439.73332703 -125.94181246 440.53421519 -128.05206299 441.33491516 C-128.91570465 441.66286575 -129.77934631 441.99081635 -130.66915894 442.32870483 C-135.23706516 443.93620193 -139.11540347 444.27783162 -143.98986816 444.29434204 C-144.6940959 444.29801873 -145.39832363 444.30169542 -146.12389159 444.30548352 C-148.48358244 444.31649629 -150.84322922 444.32036009 -153.20294189 444.32417297 C-154.894965 444.33043941 -156.58698673 444.33708637 -158.27900696 444.34408569 C-163.83534795 444.36510577 -169.39168916 444.37548564 -174.94805908 444.38545227 C-176.86218022 444.38950049 -178.77630121 444.39361743 -180.69042206 444.39780235 C-189.68297188 444.4168489 -198.67551351 444.4310815 -207.66807961 444.43941432 C-218.04314875 444.44918743 -228.41800458 444.47551115 -238.79299855 444.51591522 C-246.81606961 444.54608634 -254.83907954 444.56088412 -262.86220622 444.56419533 C-267.65238714 444.56654452 -272.44234003 444.57548808 -277.23246002 444.60065651 C-281.74034988 444.62395992 -286.24786192 444.62816137 -290.75579643 444.61789513 C-292.40693609 444.61740022 -294.05809449 444.62370735 -295.70917702 444.63745117 C-305.27804664 444.71262416 -312.27562141 444.48979958 -320.20196533 438.47138977 C-320.73177002 437.93127258 -321.26157471 437.3911554 -321.80743408 436.83467102 C-322.35012939 436.30228821 -322.89282471 435.7699054 -323.45196533 435.22138977 C-328.8795212 427.9251058 -328.42296967 420.57520472 -328.38261414 411.80612183 C-328.38678926 410.33322412 -328.39226776 408.86032964 -328.39893395 407.3874411 C-328.41338385 403.34827531 -328.40914529 399.30931365 -328.40176713 395.27013671 C-328.39703665 390.91080999 -328.40954423 386.55152751 -328.41978455 382.19221497 C-328.43698004 373.65529124 -328.43781103 365.11844108 -328.43257164 356.58150453 C-328.42853023 349.64284944 -328.42997316 342.7042161 -328.4353199 335.76556206 C-328.43606832 334.77801631 -328.43681674 333.79047056 -328.43758785 332.77299918 C-328.43911932 330.76680676 -328.44065767 328.76061435 -328.44220281 326.75442194 C-328.45593049 307.94118232 -328.45048821 289.12798428 -328.4390176 270.3147456 C-328.42908419 253.1034271 -328.44202729 235.89221609 -328.46595179 218.68091417 C-328.49033389 201.00724879 -328.4999529 183.33363349 -328.49329907 165.65995163 C-328.48980497 155.73793565 -328.49205156 145.81600236 -328.50955009 135.8939991 C-328.5242609 127.4479429 -328.52492215 119.0020276 -328.50747918 110.55597419 C-328.4989577 106.24710422 -328.49684759 101.93848608 -328.51213074 97.62962914 C-328.52595365 93.68360623 -328.52124585 89.73805149 -328.5018915 85.79205584 C-328.4981238 84.36615778 -328.50107571 82.94022243 -328.51150315 81.51435751 C-328.57288262 72.4771581 -328.17376457 66.01529314 -322.10040283 58.94013977 C-321.46747314 58.41033508 -320.83454346 57.8805304 -320.18243408 57.33467102 C-319.24464111 56.52062805 -319.24464111 56.52062805 -318.28790283 55.69013977 C-310.36256259 50.35707436 -303.2995219 50.85078006 -293.98101807 51.12739563 C-292.44829899 51.16099323 -290.91554061 51.19283621 -289.38275146 51.22306824 C-286.07722953 51.28926108 -282.77195969 51.36248082 -279.4666729 51.43948174 C-274.15861623 51.55755269 -268.85061348 51.62586575 -263.5415802 51.68197632 C-262.63736169 51.69163656 -261.73314318 51.7012968 -260.8015241 51.71124977 C-258.0124835 51.74053108 -255.22343648 51.76911842 -252.43438721 51.79756165 C-241.03408357 51.91418385 -229.6381563 52.0617149 -218.24127197 52.37104797 C-169.1699589 53.66942575 -128.85229795 49.55484389 -83.78630543 29.32925034 C-73.87156479 24.88209487 -63.8276076 20.9101125 -53.64508057 17.11763 C-52.93411268 16.85279414 -52.22314479 16.58795828 -51.49063241 16.31509709 C-48.10438614 15.0558309 -44.71606061 13.8022903 -41.32669449 12.55144978 C-34.95809583 10.19695037 -28.61443296 7.77645022 -22.26837158 5.36201477 C-20.15823483 4.56101502 -18.0480557 3.76012685 -15.93780518 2.95942688 C-15.07416351 2.63147629 -14.21052185 2.3035257 -13.32070923 1.96563721 C-8.752803 0.35814011 -4.8744647 0.01651042 0 0 Z M-66.03965759 40.03674316 C-75.11415329 44.16163294 -84.42009339 47.60412877 -93.79593658 50.97316742 C-97.51370084 52.31524605 -101.21319972 53.70545754 -104.91290283 55.09638977 C-105.61070201 55.3580553 -106.30850119 55.61972082 -107.02744579 55.88931561 C-113.01547472 58.13628554 -118.97328291 60.46071761 -124.92417908 62.80407715 C-125.62984512 63.08076736 -126.33551117 63.35745758 -127.06256104 63.64253235 C-127.67823441 63.88514297 -128.29390778 64.1277536 -128.92823792 64.37771606 C-129.61024765 64.6316362 -130.29225739 64.88555634 -130.99493408 65.14717102 C-131.88182734 65.48785268 -132.76872059 65.82853434 -133.6824894 66.17953968 C-137.30747347 67.23847003 -140.28781822 67.39769572 -144.06074524 67.39872742 C-144.74838076 67.40169756 -145.43601627 67.40466769 -146.14448923 67.40772784 C-148.43595088 67.41533291 -150.72715355 67.40888839 -153.01861572 67.40254211 C-154.66654127 67.40529358 -156.31446549 67.40897443 -157.96238708 67.41351318 C-161.50474401 67.42161177 -165.04703787 67.42379706 -168.58940315 67.42156601 C-174.19073253 67.41872975 -179.79193612 67.43309559 -185.39323425 67.45054626 C-201.31879807 67.49754645 -217.2443528 67.52152123 -233.16998291 67.5280304 C-241.97038234 67.53177911 -250.77063895 67.54979037 -259.57097715 67.58312476 C-265.13938998 67.60335388 -270.70743485 67.60570212 -276.27586949 67.59484458 C-279.73857431 67.59223958 -283.20106428 67.60623051 -286.66371346 67.62492561 C-288.26933001 67.63025272 -289.87498601 67.62874192 -291.48058701 67.61989021 C-293.67294156 67.60877826 -295.86384098 67.62218715 -298.05610657 67.64164734 C-299.89583841 67.64328164 -299.89583841 67.64328164 -301.77273655 67.64494896 C-305.60548643 68.24233367 -307.25629008 69.45409148 -309.99493408 72.14717102 C-311.32501037 74.80732359 -311.12408113 76.81796194 -311.12915516 79.79852772 C-311.133613 81.00816459 -311.13807085 82.21780145 -311.14266378 83.46409398 C-311.14257447 84.81856144 -311.1423846 86.1730289 -311.1421051 87.52749634 C-311.14540279 88.95696573 -311.14912815 90.38643419 -311.15324658 91.81590146 C-311.16328546 95.75807721 -311.1669864 99.70023774 -311.16963589 103.64242446 C-311.17353332 107.88861165 -311.18311199 112.13478672 -311.19184875 116.38096619 C-311.21162837 126.64201449 -311.22168097 136.90306381 -311.23057655 147.16412643 C-311.23495672 151.99254803 -311.24032421 156.82096853 -311.24556541 161.64938927 C-311.26257868 177.69356337 -311.27707402 193.73773678 -311.28431416 209.78191853 C-311.28622414 213.94720778 -311.28814446 218.11249702 -311.2901001 222.27778625 C-311.29058384 223.31308703 -311.29106758 224.3483878 -311.29156598 225.41506132 C-311.29987063 242.19545985 -311.32521445 258.9757872 -311.35768078 275.75615463 C-311.39071894 292.97198246 -311.40875995 310.18777407 -311.4119584 327.40363377 C-311.41412643 337.07468941 -311.42291795 346.74564122 -311.44841957 356.41666603 C-311.47008227 364.65101464 -311.47819888 372.88523421 -311.46845279 381.11960808 C-311.46389526 385.32277035 -311.46587816 389.52566614 -311.48521423 393.72879219 C-311.5027556 397.57492241 -311.50192239 401.42058997 -311.48631694 405.26672449 C-311.48392705 406.65975138 -311.48833555 408.05280955 -311.50014559 409.44578842 C-311.51518599 411.33656583 -311.50324536 413.22750063 -311.48991871 415.1182909 C-311.49089552 416.16941179 -311.49187233 417.22053268 -311.49287874 418.30350572 C-310.86719525 421.8766627 -309.47943307 423.55395592 -306.99493408 426.14717102 C-304.25341691 427.5179296 -301.99493132 427.3404121 -298.92536926 427.41546631 C-296.97926003 427.46521858 -296.97926003 427.46521858 -294.99383545 427.51597595 C-293.54572138 427.54753541 -292.097601 427.578806 -290.6494751 427.6098175 C-289.12916309 427.64555187 -287.6088537 427.6813975 -286.08854675 427.71734619 C-271.9736546 428.03924055 -257.85643026 428.22192057 -243.73875523 428.36917019 C-234.29155378 428.47012007 -224.84887869 428.61128626 -215.40435791 428.86177063 C-168.67845213 430.07494324 -130.86894829 427.81289047 -88.05740356 407.90647888 C-80.1088984 404.22980955 -71.94356116 401.2150266 -63.7157917 398.23148918 C-60.0055048 396.87817666 -56.31533346 395.47263398 -52.62384033 394.06904602 C-51.23215038 393.54215682 -49.84038646 393.01546298 -48.44854736 392.4889679 C-45.5527795 391.39264805 -42.65733758 390.29547105 -39.76202393 389.19795227 C-36.09633655 387.80858268 -32.42962648 386.42194231 -28.76226044 385.03701019 C-27.41117365 384.52617106 -26.06047491 384.01430412 -24.71021271 383.50128937 C-22.87022173 382.80222956 -21.02879843 382.1069433 -19.18731689 381.41181946 C-18.15503967 381.02072998 -17.12276245 380.6296405 -16.0592041 380.22669983 C-10.19508751 378.16079742 -5.09217632 376.89733403 1.15316772 376.89561462 C1.83757411 376.89264449 2.5219805 376.88967435 3.22712648 376.8866142 C5.5016636 376.87902552 7.77593855 376.88544679 10.05047607 376.89179993 C11.68869704 376.88904771 13.32691667 376.88536641 14.96513367 376.88082886 C18.48346385 376.87273734 22.00173055 376.87054318 25.52006912 376.87277603 C31.08367331 376.87561475 36.64715111 376.86123763 42.21072388 376.84379578 C58.02789431 376.79681797 73.84505535 376.77281906 89.66229248 376.76631165 C98.40520088 376.76256294 107.14796551 376.74455293 115.89081228 376.71121728 C121.42159349 376.69099143 126.95200424 376.68863815 132.4828074 376.69949746 C135.92147576 376.70210246 139.35992778 376.68811176 142.79854012 376.66941643 C144.39286956 376.66408954 145.98723873 376.66559974 147.58155251 376.67445183 C149.75853039 376.68556451 151.93404308 376.67215423 154.1109314 376.6526947 C155.32874613 376.65160517 156.54656086 376.65051563 157.80127907 376.64939308 C161.64076136 376.04752011 163.29438901 374.88873406 166.00506592 372.14717102 C167.06453951 368.96875024 167.13573863 366.71248613 167.14487362 363.37276649 C167.15056486 362.16113858 167.1562561 360.94951066 167.16211981 359.70116675 C167.16341247 358.34964165 167.16460049 356.99811646 167.16569519 355.64659119 C167.17042528 354.21625835 167.17557607 352.78592685 167.18111283 351.3555969 C167.19503265 347.41568495 167.20260634 343.47578225 167.20908582 339.53585196 C167.21545314 336.15894321 167.22552365 332.78204969 167.23564648 329.40515043 C167.26897921 318.28039757 167.29049098 307.15563547 167.30884632 296.03084904 C167.31364037 293.13538672 167.31862379 290.23992479 167.32365155 287.34446287 C167.35461626 269.37308009 167.38130776 251.40169411 167.39807034 233.43029213 C167.40201997 229.26723347 167.40602295 225.10417487 167.41009521 220.94111633 C167.41160776 219.38901343 167.41160776 219.38901343 167.41315085 217.80555491 C167.43016932 201.03164752 167.47129198 184.25788735 167.5221182 167.4840519 C167.57384239 150.27271433 167.60300551 133.06145259 167.61026722 115.85003793 C167.61493548 106.1822895 167.62974975 96.51478237 167.67001152 86.84711075 C167.70424705 78.61640819 167.71827714 70.38599046 167.70558738 62.15522076 C167.69974561 57.95394668 167.70373011 53.75327547 167.73375702 49.5520916 C167.76101061 45.70766703 167.76070484 41.86427673 167.73824657 38.01983027 C167.73500951 36.6274966 167.74197422 35.23509502 167.76004379 33.84287484 C168.05952726 26.75742379 168.05952726 26.75742379 165.84990853 20.22052163 C162.47476426 17.0690957 158.94319989 16.48687838 154.48381042 16.37094116 C153.18694305 16.32649368 151.89007568 16.2820462 150.5539093 16.23625183 C149.12675055 16.21247757 147.69958006 16.18939942 146.2723999 16.16694641 C144.75782585 16.12574028 143.24329894 16.08276972 141.7288208 16.03817749 C136.73676168 15.90182009 131.74446165 15.82003516 126.75115967 15.74482727 C125.45975189 15.72398862 125.45975189 15.72398862 124.14225507 15.70272899 C115.94422534 15.57071833 107.7461684 15.45660584 99.54733181 15.38939762 C90.15332168 15.31170308 80.7669007 15.18683831 71.37640381 14.91108704 C20.7006317 13.4540969 -19.76138684 18.87910304 -66.03965759 40.03674316 Z " fill="#000000" transform="translate(327.99493408203125,-0.1471710205078125)"/>
<path d="M0 0 C4.54948101 0.03183419 9.09890556 0.0214133 13.64846921 0.0171454 C21.26600664 0.01632169 28.88290223 0.04683893 36.50026059 0.09763551 C45.29573476 0.15598593 54.09034032 0.16793032 62.8859784 0.15477604 C71.38691359 0.14277584 79.88754945 0.1591589 88.38843083 0.18991494 C91.99239544 0.20270217 95.59619515 0.20632804 99.20017934 0.20263696 C103.43357037 0.19987259 107.66611389 0.22222378 111.89929318 0.26392388 C113.44964402 0.27530994 115.00008349 0.27827287 116.55046391 0.27211595 C118.66981538 0.26515606 120.78668552 0.28906049 122.90576291 0.32070374 C124.0897237 0.32648533 125.27368449 0.33226691 126.49352288 0.3382237 C129.75987985 0.97774048 132.14546158 1.72961814 134.60539216 4.04572397 C137.3453972 8.66596806 136.5541062 14.50630132 136.49173093 19.7168982 C136.49649597 21.1489665 136.50388756 22.58102807 136.51368016 24.01307082 C136.53293176 27.94879567 136.51471017 31.88359556 136.49038732 35.81925964 C136.47066274 40.06337271 136.48550026 44.30738199 136.49603391 48.55150819 C136.51116542 56.8658945 136.49422852 65.17992309 136.466483 73.49426496 C136.43534423 83.17304701 136.43554122 92.85175153 136.43700074 102.53057426 C136.438503 119.7980394 136.41100769 137.06533792 136.36744809 154.33274293 C136.32518504 171.09481808 136.30393575 187.85674657 136.30592465 204.61887574 C136.30604452 205.65122257 136.30616439 206.68356941 136.30628789 207.74719948 C136.30640896 208.77774714 136.30653002 209.8082948 136.30665475 210.87007117 C136.30872371 229.94302889 136.29105735 249.01592418 136.2641951 268.08886167 C136.25514119 274.83824318 136.25195584 281.58761323 136.25059819 288.33700013 C136.24855283 296.56031202 136.2351735 304.78351874 136.20759977 313.00678599 C136.19373821 317.20382913 136.18461203 321.40073767 136.18838239 325.59780526 C136.19166511 329.43823171 136.18112767 333.27836032 136.15943681 337.11872464 C136.15399279 338.50962682 136.15360994 339.9005597 136.15873868 341.29146308 C136.16493049 343.17941694 136.150943 345.06740491 136.13591981 346.95530915 C136.13380653 348.00480382 136.13169326 349.0542985 136.12951595 350.13559604 C135.68684774 353.44857047 134.72884027 355.30064466 132.75001645 357.97580934 C129.12520028 360.39235345 127.48429768 360.22200347 123.17041135 360.21390748 C122.49859501 360.21546649 121.82677868 360.21702549 121.13460428 360.21863174 C118.87796683 360.22159271 116.62161624 360.21040255 114.36500669 360.19944215 C112.74847026 360.19891798 111.13193328 360.1993534 109.51539731 360.20067811 C106.02866528 360.20201354 102.54200352 360.19758976 99.05528188 360.1890738 C93.5262413 360.17668492 87.99733116 360.18364736 82.46829343 360.1944983 C66.74323749 360.22294708 51.01829081 360.23554988 35.29322934 360.2057898 C26.6120824 360.18952338 17.93121957 360.19489137 9.25010186 360.22358608 C4.66292227 360.23779192 0.0763337 360.24109462 -4.5108192 360.2173636 C-8.84082139 360.19497047 -13.16991309 360.20103025 -17.49988437 360.22734857 C-19.07424833 360.23205693 -20.64868421 360.22688192 -22.22296596 360.21011758 C-34.22989017 360.09087847 -44.07723797 362.69361044 -55.24998355 366.97580934 C-56.52217248 367.44305824 -57.79528759 367.90779603 -59.0694778 368.36955953 C-62.37320075 369.5720811 -65.65984184 370.81413489 -68.94529605 372.06565309 C-70.81618841 372.77312295 -72.687081 373.48059225 -74.55798316 374.1880362 C-76.5048674 374.92497044 -78.45109257 375.6636187 -80.39710879 376.40284181 C-84.44137574 377.93908433 -88.48747224 379.47046588 -92.5339191 381.00095582 C-96.60910782 382.54249621 -100.68423905 384.08418524 -104.75875735 385.62749696 C-116.18443178 389.95489599 -127.62061049 394.25393557 -139.06248355 398.53830934 C-140.61408689 399.11958605 -142.16568224 399.70088406 -143.71726871 400.28220582 C-151.61964075 403.24264837 -151.61964075 403.24264837 -153.76576877 404.0233891 C-155.73006653 404.77647895 -157.67070634 405.59125358 -159.60108066 406.42747426 C-169.63487197 410.6633202 -178.22744177 411.8372582 -189.0417316 411.72043824 C-190.65173155 411.72531002 -192.2617254 411.732764 -193.87170291 411.74256349 C-198.18946777 411.76115553 -202.50630812 411.74273492 -206.82399988 411.71589923 C-211.36197442 411.69305929 -215.89991045 411.70150026 -220.43792605 411.70539308 C-228.04234103 411.70715046 -235.64639645 411.68516132 -243.25071597 411.64817262 C-252.03636109 411.60568204 -260.8214834 411.59885795 -269.60721058 411.61129653 C-278.08513193 411.62268293 -286.56286971 411.61140451 -295.04076457 411.58894944 C-298.6399597 411.57967323 -302.23904229 411.57790262 -305.83824611 411.58212113 C-310.06814967 411.58588793 -314.29752045 411.56967311 -318.5273025 411.53800035 C-320.07808613 411.52951971 -321.62892383 411.52781024 -323.17972064 411.53338075 C-325.2971652 411.53983323 -327.41302157 411.52164741 -329.53030276 411.49720216 C-331.30630626 411.49104355 -331.30630626 411.49104355 -333.11818862 411.48476052 C-336.88499119 410.8726136 -338.54616487 409.61639395 -341.24998355 406.97580934 C-342.58005983 404.31565677 -342.37913059 402.30501841 -342.38420463 399.32445264 C-342.38866247 398.11481577 -342.39312031 396.9051789 -342.39771324 395.65888637 C-342.39762394 394.30441891 -342.39743407 392.94995145 -342.39715457 391.59548402 C-342.40045225 390.16601462 -342.40417762 388.73654616 -342.40829605 387.3070789 C-342.41833493 383.36490315 -342.42203586 379.42274262 -342.42468536 375.48055589 C-342.42858279 371.2343687 -342.43816146 366.98819364 -342.44689822 362.74201417 C-342.46667784 352.48096586 -342.47673043 342.21991654 -342.48562601 331.95885393 C-342.49000619 327.13043232 -342.49537367 322.30201182 -342.50061488 317.47359109 C-342.51762815 301.42941698 -342.53212349 285.38524357 -342.53936362 269.34106183 C-342.54127361 265.17577258 -342.54319393 261.01048333 -342.54514956 256.8451941 C-342.5456333 255.80989333 -342.54611705 254.77459256 -342.54661544 253.70791904 C-342.5549201 236.9275205 -342.58026392 220.14719315 -342.61273024 203.36682572 C-342.64576841 186.1509979 -342.66380942 168.93520629 -342.66700786 151.71934658 C-342.6691759 142.04829094 -342.67796742 132.37733913 -342.70346904 122.70631433 C-342.72513174 114.47196572 -342.73324835 106.23774615 -342.72350226 98.00337227 C-342.71894473 93.80021 -342.72092763 89.59731422 -342.7402637 85.39418817 C-342.75780506 81.54805795 -342.75697186 77.70239038 -342.74136641 73.85625587 C-342.73897652 72.46322898 -342.74338502 71.07017081 -342.75519506 69.67719194 C-342.77023546 67.78641452 -342.75829483 65.89547972 -342.74496818 64.00468946 C-342.74594498 62.95356857 -342.74692179 61.90244768 -342.7479282 60.81947464 C-342.12224472 57.24631766 -340.73448253 55.56902444 -338.24998355 52.97580934 C-335.41797613 51.55980563 -333.08856092 51.88683153 -329.92089725 51.92525697 C-329.26349093 51.93160804 -328.60608461 51.93795912 -327.92875689 51.94450265 C-326.48288366 51.95899225 -325.03703224 51.97579141 -323.59120822 51.99456048 C-320.41134923 52.03566679 -317.2314118 52.06551395 -314.05143607 52.09601152 C-312.33481038 52.1125304 -310.61819 52.12960797 -308.90157497 52.14719975 C-297.78090587 52.25887101 -286.65985956 52.28889003 -275.53872669 52.32251847 C-264.74542249 52.35558611 -253.9538349 52.41333709 -243.1613605 52.55515504 C-184.70805129 54.24061273 -184.70805129 54.24061273 -129.62898135 37.10743165 C-122.97011635 33.77624115 -115.95956548 31.35083574 -108.96442485 28.83031487 C-105.28556825 27.49560039 -101.62805818 26.10516804 -97.96873355 24.71799684 C-96.53913649 24.17836914 -95.10944907 23.6389808 -93.67967105 23.09983277 C-92.97215701 22.83287599 -92.26464297 22.5659192 -91.53568912 22.29087281 C-88.60279677 21.18452428 -85.66953421 20.07915914 -82.73626781 18.9738028 C-79.81359456 17.87236741 -76.89107617 16.77052162 -73.96860766 15.6685431 C-72.62394295 15.1615189 -71.27925148 14.65456567 -69.93452716 14.14769959 C-68.67976446 13.67466495 -67.42540486 13.20055959 -66.17145896 12.72536397 C-64.89904577 12.24729651 -63.62372885 11.77689678 -62.34583449 11.31367993 C-58.76780219 10.00219432 -55.35119159 8.55941684 -51.93801761 6.86174989 C-35.27999158 -1.02150156 -18.00624278 -0.15497752 0 0 Z M-70.16726565 32.0450232 C-76.2550385 34.98583897 -82.58821643 37.23170884 -88.93748355 39.53830934 C-91.20570841 40.39686771 -93.47279546 41.25844364 -95.7382648 42.12424684 C-104.16277719 45.32512307 -112.59264224 48.51168182 -121.02747989 51.68525147 C-122.71291448 52.31988101 -124.3979758 52.95550311 -126.08259463 53.59229493 C-130.02535192 55.08231344 -133.97284208 56.5538483 -137.93580508 57.98931336 C-141.36413269 59.24381527 -144.71817236 60.59583953 -148.06362796 62.05579591 C-164.51745298 68.91015828 -180.32357516 69.0481982 -197.80023909 68.8242321 C-201.80557007 68.7830155 -205.81078874 68.79238429 -209.81628299 68.79705262 C-218.22553567 68.799634 -226.63398266 68.75429903 -235.04301333 68.69724488 C-247.74652872 68.6112979 -260.45007344 68.56171992 -273.15388185 68.56169659 C-277.89974466 68.5598343 -282.64448979 68.53176576 -287.39008582 68.4822737 C-290.33717757 68.45618696 -293.28406291 68.45062226 -296.23125911 68.45021653 C-298.23589017 68.44356601 -300.24038918 68.41178405 -302.24476504 68.37911439 C-309.60006444 68.40183593 -314.74476006 68.88533848 -320.24998355 73.97580934 C-325.71681896 80.22441782 -325.96387246 86.20168062 -325.88490176 94.23520875 C-325.89270172 95.45738178 -325.90050167 96.67955481 -325.90853798 97.93876338 C-325.92498401 101.31480922 -325.91913109 104.68945622 -325.90360689 108.06541586 C-325.892267 111.71240874 -325.90976909 115.35928176 -325.9235065 119.00625062 C-325.94571546 126.14407806 -325.94094826 133.2816423 -325.92644329 140.41947997 C-325.91514179 146.22158829 -325.91362409 152.02362297 -325.91906238 157.82573915 C-325.91982854 158.65217845 -325.92059471 159.47861776 -325.92138409 160.33010069 C-325.92298275 162.00910558 -325.92460382 163.68811046 -325.92624705 165.36711532 C-325.94049768 181.10348807 -325.92412261 196.83971508 -325.89724521 212.57606393 C-325.87490703 226.07250386 -325.87878735 239.56872875 -325.90183902 253.0651648 C-325.92860916 268.74601603 -325.93912445 284.42673958 -325.9237777 300.10761046 C-325.92218499 301.7803668 -325.92061313 303.45312315 -325.91906238 305.12587953 C-325.918291 305.9488629 -325.91751962 306.77184627 -325.91672487 307.61976853 C-325.91241151 313.4135136 -325.91968656 319.20717754 -325.93146014 325.00091004 C-325.9454972 332.06360036 -325.94166005 339.12601289 -325.91505642 346.18867147 C-325.90193419 349.79079757 -325.89673799 353.3924609 -325.91330218 356.99458337 C-325.93099878 360.9021194 -325.90983963 364.80890109 -325.88490176 368.71640992 C-325.89605537 369.85104377 -325.90720898 370.98567762 -325.91870058 372.15469432 C-325.83343803 379.03736993 -324.7734519 383.6712766 -320.24998355 388.97580934 C-315.93618696 392.9814776 -312.78698989 394.08487871 -306.98184085 394.19027162 C-305.88830798 394.21187852 -304.79477511 394.23348542 -303.66810489 394.25574708 C-302.46688998 394.27414643 -301.26567508 394.29254579 -300.02805972 394.3115027 C-298.76217517 394.33413682 -297.49629062 394.35677094 -296.19204593 394.38009095 C-284.38762441 394.58422887 -272.58164874 394.69490828 -260.77585769 394.78331113 C-252.86852428 394.84384946 -244.96342434 394.93039935 -237.0573566 395.08689332 C-188.17566773 396.30997231 -188.17566773 396.30997231 -141.98719668 381.76441407 C-136.26413738 378.96407276 -130.26688851 376.88799253 -124.28123355 374.72580934 C-122.18221764 373.93540699 -120.08468718 373.14104717 -117.98875308 372.34250855 C-99.80917496 365.44462807 -81.61538739 358.58634216 -63.37498355 351.85080934 C-62.58648013 351.55867555 -61.79797671 351.26654176 -60.98557925 350.96555543 C-58.7856775 350.15105328 -56.58449471 349.34012717 -54.38279605 348.53049684 C-53.16479312 348.08174195 -51.94679019 347.63298707 -50.69187808 347.17063355 C-49.55605289 346.77634156 -48.42022769 346.38204957 -47.24998355 345.97580934 C-46.31007571 345.62643312 -45.37016788 345.27705689 -44.40177798 344.91709352 C-38.54764485 343.28002535 -32.4048365 343.70142895 -26.37937808 343.72043824 C-24.974245 343.71768507 -23.56911347 343.71400319 -22.16398501 343.70946717 C-19.1482178 343.70138202 -16.1325246 343.69917993 -13.11674762 343.70141435 C-8.34175241 343.70425814 -3.56690388 343.68985572 1.20805478 343.67243409 C14.78272935 343.62550896 28.35739323 343.60147114 41.93214536 343.59494996 C49.43723194 343.59119251 56.94215171 343.57311033 64.4471668 343.5398556 C69.18739843 343.51970717 73.92719795 343.51723868 78.66745472 343.52813578 C81.62450527 343.53075412 84.58130731 343.51668475 87.53829312 343.49805474 C89.54870995 343.49024871 91.55917356 343.50212673 93.56956601 343.51473451 C100.7053483 343.44993964 106.63907778 342.91051092 112.75001645 338.97580934 C116.94886385 334.66929918 118.99790398 330.8464084 119.00728536 324.83357739 C119.0169587 323.26580353 119.0169587 323.26580353 119.02682745 321.66635746 C119.02373025 320.51939012 119.02063305 319.37242278 119.01744199 318.19069886 C119.02423866 316.36150752 119.02423866 316.36150752 119.03117263 314.49536282 C119.04165643 311.10877368 119.04314018 307.72239661 119.04078388 304.33580625 C119.04037615 300.68402295 119.05141076 297.03227146 119.06089902 293.38050294 C119.07751963 286.22516285 119.08300905 279.06985571 119.08412378 271.91449793 C119.08507379 266.09847717 119.08918176 260.28246729 119.09552503 254.46644998 C119.11314069 237.9796157 119.12236344 221.49280746 119.12086408 205.00596371 C119.12078417 204.1169527 119.12070425 203.2279417 119.12062192 202.31199098 C119.12049928 200.97684752 119.12049928 200.97684752 119.12037416 199.61473147 C119.11956127 185.18961606 119.13869884 170.76460508 119.16689865 156.33951988 C119.19562065 141.53053948 119.20943931 126.72161002 119.2077111 111.91260105 C119.20704694 103.59743573 119.21255057 95.28237986 119.2340672 86.96723962 C119.25227007 79.88727735 119.25663379 72.80747414 119.24304835 65.72749861 C119.23651397 62.11544196 119.23641803 58.50369053 119.25375485 54.89166284 C119.27236077 50.97492379 119.2599431 47.05863143 119.24449277 43.14187074 C119.25992346 41.43145798 119.25992346 41.43145798 119.27566588 39.68649143 C119.21914959 33.21610349 118.61680018 29.23280411 114.75001645 23.97580934 C110.0772717 19.54269252 105.6805421 17.75634615 99.27501035 17.62763429 C97.64142575 17.58882646 97.64142575 17.58882646 95.97483945 17.54923463 C94.78867032 17.53128846 93.60250119 17.51334229 92.38038754 17.4948523 C91.1222424 17.46885957 89.86409726 17.44286683 88.56782651 17.41608644 C76.8372267 17.18201432 65.10319195 17.0703283 53.37068868 16.98255181 C45.52044137 16.92278408 37.67333917 16.83335741 29.82472348 16.6589148 C-5.90244715 15.88100882 -37.25912833 16.04680195 -70.16726565 32.0450232 Z " fill="#FCDA00" transform="translate(359.24998354911804,16.024190664291382)"/>
<path d="M0 0 C0 29.04 0 58.08 0 88 C-4.29 89.32 -8.58 90.64 -13 92 C-26.31723413 98.15757261 -36.73254448 107.74888671 -47.30786133 117.69238281 C-62.87473629 132.29853441 -79.74560979 147.41890341 -102.375 147.4375 C-117.05024014 146.94975986 -117.05024014 146.94975986 -120 144 C-120.11095996 140.87306798 -120.16166759 137.76450747 -120.17578125 134.63671875 C-120.19898181 132.69855688 -120.22309924 130.7604058 -120.24804688 128.82226562 C-120.28317038 125.75424002 -120.31250389 122.68661039 -120.32592773 119.6184082 C-120.34138951 116.66568532 -120.38159298 113.71413308 -120.42578125 110.76171875 C-120.42291862 109.38653328 -120.42291862 109.38653328 -120.41999817 107.98356628 C-120.49416173 102.86609079 -120.49416173 102.86609079 -122.81323242 98.40942383 C-125.95276318 96.38592142 -128.34420916 96.66765538 -132 97 C-132.99 97.33 -133.98 97.66 -135 98 C-136.18001549 101.54004646 -136.22912346 104.8227256 -136.31640625 108.51171875 C-136.3475779 109.60405571 -136.3475779 109.60405571 -136.37937927 110.71846008 C-136.44468746 113.04137875 -136.50367237 115.36440906 -136.5625 117.6875 C-136.60570305 119.26368335 -136.64931792 120.83985548 -136.69335938 122.41601562 C-136.8003496 126.27722975 -136.90166961 130.13855603 -137 134 C-140.44399263 132.77487156 -142.85832126 131.52369642 -145.48828125 128.98828125 C-146.10791748 128.39885742 -146.72755371 127.80943359 -147.3659668 127.20214844 C-148.00832275 126.57856445 -148.65067871 125.95498047 -149.3125 125.3125 C-150.65810908 124.03176879 -152.00445472 122.75181098 -153.3515625 121.47265625 C-153.98868164 120.86437988 -154.62580078 120.25610352 -155.28222656 119.62939453 C-158.43055033 116.64305104 -161.69398384 113.80882233 -165 111 C-165.886875 110.22269531 -166.77375 109.44539063 -167.6875 108.64453125 C-185.07094131 93.68300168 -201.91965006 86.37158768 -225 88 C-240.04377696 89.78573474 -252.87650504 97.34036074 -265 106 C-265 85.54 -265 65.08 -265 44 C-222.76 44 -180.52 44 -137 44 C-136.67 53.24 -136.34 62.48 -136 72 C-134.5 76 -134.5 76 -132 77 C-127.94944183 77.41591713 -127.94944183 77.41591713 -124 77 C-120.62362834 73.62207432 -120.58678018 70.6960244 -120.48828125 66.046875 C-120.47033005 65.38665344 -120.45237885 64.72643188 -120.43388367 64.04620361 C-120.37991191 61.94753311 -120.34592957 59.84908823 -120.3125 57.75 C-120.27931505 56.32288536 -120.24482429 54.89580044 -120.20898438 53.46875 C-120.1241953 49.97938348 -120.05732112 46.48993809 -120 43 C-119.37963364 42.78987778 -118.75926727 42.57975555 -118.12010193 42.36326599 C-99.98414413 36.20037375 -82.03761629 29.60622186 -64.12054443 22.8394165 C-60.69898328 21.5477693 -57.27625321 20.25922899 -53.85351562 18.97070312 C-53.17873861 18.71664389 -52.5039616 18.46258465 -51.8087368 18.20082664 C-45.83920657 15.9534894 -39.8688426 13.70837448 -33.89776611 11.46514893 C-31.27129091 10.47830463 -28.64551259 9.48963469 -26.02020264 8.49969482 C-22.2434907 7.07603209 -18.4637033 5.66071037 -14.68359375 4.24609375 C-13.54455093 3.81563248 -12.40550812 3.3851712 -11.23194885 2.94166565 C-10.18917282 2.55284714 -9.14639679 2.16402863 -8.07202148 1.76342773 C-7.16064926 1.42125717 -6.24927704 1.07908661 -5.31028748 0.72654724 C-3 0 -3 0 0 0 Z " fill="#A2C200" transform="translate(316,58)"/>
<path d="M0 0 C2.34212506 0.94765901 4.60146181 2.00980876 6.87548828 3.11083984 C22.50626152 10.1475937 36.68170698 11.79771171 54.18798828 13.54833984 C54.18798828 31.69833984 54.18798828 49.84833984 54.18798828 68.54833984 C49.56798828 65.90833984 44.94798828 63.26833984 40.18798828 60.54833984 C26.61901561 55.87944602 12.12656513 55.70574072 -1.06201172 61.54443359 C-14.20762266 68.14006131 -24.08612402 80.89557572 -33.56201172 91.86083984 C-44.60930308 104.50149054 -56.75903607 113.71158851 -73.81201172 115.54833984 C-73.82135742 114.72108398 -73.83070313 113.89382813 -73.84033203 113.04150391 C-73.89401491 109.29317569 -73.97766882 105.54609822 -74.06201172 101.79833984 C-74.07619141 100.49638672 -74.09037109 99.19443359 -74.10498047 97.85302734 C-74.13720703 96.60263672 -74.16943359 95.35224609 -74.20263672 94.06396484 C-74.22358398 92.91186523 -74.24453125 91.75976562 -74.26611328 90.57275391 C-74.91745756 86.9641435 -75.95243664 85.77096855 -78.81201172 83.54833984 C-81.71986053 82.83951681 -83.75455072 83.20862196 -86.81201172 83.54833984 C-88.66241271 84.55847115 -88.66241271 84.55847115 -89.81201172 86.54833984 C-90.3206008 89.8410558 -90.3206008 89.8410558 -90.32373047 93.62255859 C-90.35065727 94.64830742 -90.35065727 94.64830742 -90.37812805 95.69477844 C-90.43223247 97.87506985 -90.46612512 100.0551424 -90.49951172 102.23583984 C-90.53268491 103.71568801 -90.56717459 105.1955073 -90.60302734 106.67529297 C-90.68795696 110.29943153 -90.75476806 113.92364636 -90.81201172 117.54833984 C-91.99150391 117.92603516 -93.17099609 118.30373047 -94.38623047 118.69287109 C-96.09109818 119.24750808 -97.79548087 119.80363704 -99.49951172 120.36083984 C-100.42417236 120.66127197 -101.34883301 120.9617041 -102.30151367 121.27124023 C-107.96400055 123.14914603 -113.50983399 125.20023307 -119.03076172 127.46240234 C-132.40259936 132.92491359 -144.17166178 137.66062914 -158.81201172 135.54833984 C-160.09720703 135.37173828 -161.38240234 135.19513672 -162.70654297 135.01318359 C-179.99792423 132.03927971 -196.22540891 125.27274172 -210.81201172 115.54833984 C-211.09829475 112.79676315 -211.19028216 110.27113353 -211.15258789 107.51855469 C-211.15324501 106.27453636 -211.15324501 106.27453636 -211.15391541 105.00538635 C-211.1518207 102.25644617 -211.12845785 99.50811135 -211.10498047 96.75927734 C-211.09938693 94.85641819 -211.09511569 92.95355471 -211.09211731 91.0506897 C-211.08064944 86.03641889 -211.05116562 81.02240777 -211.01800537 76.00823975 C-210.98734627 70.89403802 -210.97362088 65.77979443 -210.95849609 60.66552734 C-210.92629773 50.62635059 -210.875078 40.58736679 -210.81201172 30.54833984 C-204.65731218 30.37086138 -201.77017617 30.39731845 -196.81201172 34.54833984 C-193.65072754 37.92394837 -193.34659442 40.69546574 -192.93701172 45.23583984 C-191.61661896 55.4292719 -187.95729552 61.02041392 -180.38623047 67.82177734 C-172.48451494 73.12156226 -165.06894686 72.98187718 -155.81201172 72.86083984 C-153.96349609 72.86567383 -153.96349609 72.86567383 -152.07763672 72.87060547 C-139.70644999 72.79759954 -128.8235655 70.55275439 -119.49951172 61.86083984 C-112.15046058 53.97731226 -109.06582725 44.6050421 -108.49951172 34.04833984 C-107.93553609 27.0278156 -104.99217365 22.33794337 -99.87451172 17.61083984 C-96.64420516 15.43532726 -94.60394032 15.04935962 -90.81201172 14.54833984 C-90.80654327 15.38066132 -90.80654327 15.38066132 -90.80096436 16.22979736 C-90.75915332 22.00518678 -90.68981831 27.77978044 -90.60449219 33.5546875 C-90.57626673 35.70987998 -90.55506006 37.86517627 -90.54101562 40.02050781 C-90.51960825 43.11886815 -90.47296852 46.21597811 -90.42138672 49.31396484 C-90.42015808 50.27763977 -90.41892944 51.2413147 -90.41766357 52.23419189 C-90.34279524 57.53625158 -90.34279524 57.53625158 -87.99658203 62.16845703 C-84.85532779 64.1526288 -82.45011949 63.87907691 -78.81201172 63.54833984 C-77.82201172 63.21833984 -76.83201172 62.88833984 -75.81201172 62.54833984 C-74.74080483 59.72858123 -74.6655589 56.95731055 -74.60668945 53.96337891 C-74.58674423 53.06274719 -74.56679901 52.16211548 -74.54624939 51.23419189 C-74.5295369 50.27051697 -74.5128244 49.30684204 -74.49560547 48.31396484 C-74.46443382 46.8242215 -74.46443382 46.8242215 -74.43263245 45.30438232 C-74.36731423 42.13577102 -74.30833433 38.96707774 -74.24951172 35.79833984 C-74.20630965 33.64859183 -74.16269481 31.49885206 -74.11865234 29.34912109 C-74.01165101 24.08228036 -73.90985181 18.8153583 -73.81201172 13.54833984 C-72.60254883 13.53375732 -71.39308594 13.5191748 -70.14697266 13.50415039 C-65.60665125 13.44563639 -61.06679863 13.36841254 -56.52685547 13.28588867 C-54.57185545 13.25288678 -52.61676581 13.22478015 -50.66162109 13.2019043 C-36.97591894 13.03747996 -24.67864652 12.51529566 -12.31201172 6.04833984 C-10.59498047 5.16662109 -10.59498047 5.16662109 -8.84326172 4.26708984 C-5.82402969 2.74614216 -5.82402969 2.74614216 -3.94873047 0.60693359 C-1.81201172 -0.45166016 -1.81201172 -0.45166016 0 0 Z " fill="#5FA716" transform="translate(406.81201171875,225.45166015625)"/>
<path d="M0 0 C42.24 0 84.48 0 128 0 C128 56.43 128 112.86 128 171 C114.0212547 171 114.0212547 171 107.0625 169.3125 C106.30396729 169.13605957 105.54543457 168.95961914 104.76391602 168.77783203 C97.9890509 167.13280318 91.25868228 165.11345616 85 162 C84.67 161.34 84.34 160.68 84 160 C84.890625 157.96875 84.890625 157.96875 86.25 155.5 C91.5904935 145.21955002 93.13790197 135.00608853 93.23828125 123.5234375 C93.25038887 122.19102524 93.25038887 122.19102524 93.26274109 120.83169556 C93.27650066 118.96431385 93.28725871 117.09690785 93.29516602 115.22949219 C93.30674421 113.32284153 93.32728684 111.41622472 93.35668945 109.50976562 C93.39929124 106.74326747 93.41551736 103.97772253 93.42578125 101.2109375 C93.45204338 99.93734879 93.45204338 99.93734879 93.47883606 98.63803101 C93.46385481 94.5522495 93.31689918 92.50695723 91.10058594 88.96142578 C89.2015716 86.89300855 89.2015716 86.89300855 86.96484375 86.40625 C82.86338143 86.51844051 82.86338143 86.51844051 79.27696228 88.27615356 C77.71358221 90.38665221 77.62761167 91.47465475 77.63110352 94.08154297 C77.62422012 94.90024872 77.61733673 95.71895447 77.61024475 96.56246948 C77.61640305 97.44677643 77.62256134 98.33108337 77.62890625 99.2421875 C77.61149921 101.13281408 77.59391515 103.02343904 77.57617188 104.9140625 C77.56617406 107.88024249 77.56248331 110.846304 77.56420898 113.8125 C77.54772964 126.89050673 77.18796344 138.15233509 71 150 C70.34 150 69.68 150 69 150 C67.3426105 147.78206743 65.81505106 145.57009093 64.3125 143.25 C63.86406738 142.5698584 63.41563477 141.8897168 62.95361328 141.18896484 C60.26984677 137.08115896 57.77141767 132.90866576 55.375 128.625 C45.4746047 111.44896537 29.0649299 101.92031171 10.32421875 96.76171875 C6.92126402 95.98195827 3.45606203 95.49372315 0 95 C0 63.65 0 32.3 0 0 Z " fill="#A3C200" transform="translate(333,51)"/>
<path d="M0 0 C7.19440909 5.63326934 13.86943133 11.78350725 20.5 18.0625 C31.08211652 28.2751935 31.08211652 28.2751935 43.36401367 36.14306641 C46.05042629 37.55163073 47.95715167 38.7465375 50 41 C51.10990376 45.50144394 50.85411623 49.77394394 50.5625 54.375 C50.52189453 55.58800781 50.48128906 56.80101562 50.43945312 58.05078125 C50.33360823 61.03795941 50.18592651 64.01691238 50 67 C49.41508789 67.0093457 48.83017578 67.01869141 48.22753906 67.02832031 C45.5675142 67.08213279 42.90922778 67.16575449 40.25 67.25 C38.86941406 67.27126953 38.86941406 67.27126953 37.4609375 67.29296875 C32.08472814 67.44154883 32.08472814 67.44154883 27.390625 69.828125 C25.32841907 73.04887359 25.46621148 75.26348038 26 79 C31.41833431 85.31288541 31.41833431 85.31288541 50 84 C50 107.76 50 131.52 50 156 C45.63729608 154.25491843 42.80854212 152.58651094 39.0625 149.875 C15.07561144 132.8805483 -8.36101101 124.93725137 -37.9375 128.625 C-49.93151991 130.89755114 -60.71590499 136.02954299 -71.109375 142.265625 C-73.37900089 143.62740053 -75.62799376 144.83755142 -78 146 C-78.25764539 129.38802557 -78.45126673 112.77670494 -78.56993389 96.16321182 C-78.62651311 88.44813258 -78.70356113 80.73429889 -78.82983398 73.02001953 C-78.9399191 66.29144181 -79.01054311 59.56376647 -79.03497344 52.83431315 C-79.04924295 49.27474958 -79.0824523 45.71776599 -79.16303062 42.15903473 C-79.69748749 17.61342057 -79.69748749 17.61342057 -74.20901966 10.91253281 C-71.97900086 8.66991656 -69.58331816 6.81816768 -67 5 C-65.49481653 3.69344767 -63.9937102 2.38215377 -62.5 1.0625 C-43.05170415 -13.16036405 -19.60361539 -13.87020941 0 0 Z " fill="#5FA716" transform="translate(129,172)"/>
<path d="M0 0 C2.81766674 1.98095733 5.68858411 3.88532561 8.55444336 5.79589844 C8.55444336 20.31589844 8.55444336 34.83589844 8.55444336 49.79589844 C-33.68555664 49.79589844 -75.92555664 49.79589844 -119.44555664 49.79589844 C-119.44555664 -0.20410156 -119.44555664 -0.20410156 -108.44555664 -12.20410156 C-70.14601332 -39.93825362 -34.5189333 -24.690095 0 0 Z " fill="#A2C200" transform="translate(170.445556640625,343.2041015625)"/>
<path d="M0 0 C0 19.47 0 38.94 0 59 C-3.96 59.99 -7.92 60.98 -12 62 C-21.30909698 66.66609824 -28.19585234 74.3588502 -32 84 C-32.89129971 87.93601631 -33.27433788 91.92403096 -33.68945312 95.93359375 C-34.62285295 103.26999743 -37.40655594 108.93945022 -43 113.875 C-49.62854156 118.57021694 -55.5526843 118.36595259 -63.4375 118.375 C-65.11682617 118.41173828 -65.11682617 118.41173828 -66.83007812 118.44921875 C-73.19916397 118.47189799 -77.1994342 118.34753228 -82 114 C-85.33855418 110.30052105 -86.17824695 107.58711617 -86.4375 102.75 C-86.93470473 94.79472428 -89.90324608 88.62823753 -95.6875 83.125 C-103.05386419 77.26507801 -110.76588714 75.52766359 -120 75 C-120 68.73 -120 62.46 -120 56 C-117.03 56.33 -114.06 56.66 -111 57 C-85.90744664 58.85870766 -66.92199409 50.21806856 -48 34 C-42.98568895 29.60295217 -38.13698496 25.02874404 -33.30078125 20.4375 C-28.33950949 15.8021512 -23.24763696 11.53707384 -17.75 7.5625 C-17.18361816 7.1492749 -16.61723633 6.7360498 -16.03369141 6.31030273 C-10.92512786 2.70570387 -6.35907554 0 0 0 Z " fill="#5FA716" transform="translate(316,164)"/>
<path d="M0 0 C21.40963707 -0.11679944 42.8192216 -0.20497163 64.22911263 -0.25906086 C74.17010269 -0.28484295 84.1108948 -0.31999362 94.05175781 -0.37719727 C102.71618369 -0.42703203 111.38046621 -0.45929098 120.04503143 -0.47044247 C124.63296561 -0.47696112 129.22048965 -0.49228177 133.80829239 -0.52865028 C138.12738613 -0.56261099 142.44590116 -0.57305289 146.76511574 -0.56553841 C148.34938388 -0.56691293 149.93367156 -0.57684539 151.51782417 -0.59602737 C153.68406847 -0.62096908 155.84813845 -0.61490421 158.01443481 -0.60127258 C159.2256708 -0.60588155 160.43690678 -0.61049051 161.68484688 -0.61523914 C164.9915902 -0.00156072 167.37748598 0.72169918 169.86034369 3.06802207 C172.58987449 7.69520065 171.80411149 13.52867587 171.74171448 18.74108887 C171.74647952 20.17315717 171.7538711 21.60521874 171.76366371 23.03726149 C171.78291531 26.97298633 171.76469372 30.90778623 171.74037087 34.84345031 C171.72064629 39.08756338 171.73548381 43.33157265 171.74601746 47.57569885 C171.76114897 55.89008517 171.74421207 64.20411375 171.71646655 72.51845562 C171.68532778 82.19723768 171.68552477 91.87594219 171.68698429 101.55476493 C171.68848655 118.82223007 171.66099124 136.08952859 171.61743164 153.35693359 C171.57516859 170.11900875 171.5539193 186.88093724 171.5559082 203.64306641 C171.55602807 204.67541324 171.55614794 205.70776007 171.55627144 206.77139014 C171.5563925 207.8019378 171.55651357 208.83248546 171.5566383 209.89426184 C171.55870726 228.96721955 171.5410409 248.04011485 171.51417865 267.11305234 C171.50512474 273.86243384 171.50193939 280.61180389 171.50058174 287.3611908 C171.49853638 295.58450269 171.48515705 303.8077094 171.45758332 312.03097665 C171.44372176 316.2280198 171.43459558 320.42492834 171.43836594 324.62199593 C171.44164866 328.46242237 171.43111122 332.30255099 171.40942036 336.14291531 C171.40397634 337.53381748 171.40359349 338.92475037 171.40872223 340.31565374 C171.41491404 342.2036076 171.40092655 344.09159558 171.38590336 345.97949982 C171.38379008 347.02899449 171.38167681 348.07848916 171.3794995 349.1597867 C170.93683129 352.47276114 169.97882382 354.32483532 168 357 C164.37428169 359.41714554 162.72844861 359.24710229 158.41316223 359.24050903 C157.40476344 359.24307231 157.40476344 359.24307231 156.37599295 359.24568737 C154.11879967 359.24898693 151.86190232 359.2379711 149.60473633 359.22705078 C147.98855089 359.22648677 146.37236495 359.22680304 144.75617981 359.22793579 C140.36389085 359.22851069 135.97171066 359.21673424 131.57944703 359.20278788 C126.99101449 359.19030332 122.40257959 359.18911182 117.81413269 359.18673706 C109.12313012 359.18051559 100.43217774 359.16409576 91.74119729 359.14403808 C81.8477317 359.12169981 71.95426374 359.11069087 62.06077921 359.10064721 C41.70715811 359.07973011 21.35358221 359.04454119 1 359 C1 358.67 1 358.34 1 358 C50.83 357.67 100.66 357.34 152 357 C152.96958001 354.09125996 153.12880274 352.21010209 153.1328125 349.18359375 C153.13474609 347.79043945 153.13474609 347.79043945 153.13671875 346.36914062 C153.13285156 345.40169922 153.12898437 344.43425781 153.125 343.4375 C153.12886719 342.46619141 153.13273438 341.49488281 153.13671875 340.49414062 C153.13542969 339.56666016 153.13414062 338.63917969 153.1328125 337.68359375 C153.13112061 336.40826782 153.13112061 336.40826782 153.12939453 335.10717773 C153.13451375 332.94273385 153.13451375 332.94273385 152 331 C152.33 330.34 152.66 329.68 153 329 C153.0951784 327.24229747 153.12554901 325.48094443 153.12584114 323.72066689 C153.12844889 322.59401481 153.13105664 321.46736274 153.13374341 320.3065697 C153.13151268 319.05834756 153.12928196 317.81012542 153.12698364 316.52407837 C153.12854363 315.20620437 153.13010362 313.88833037 153.13171089 312.5305208 C153.13590374 308.86004504 153.1338137 305.18959513 153.13072467 301.51911926 C153.12847057 297.56539226 153.13195026 293.61166983 153.13470459 289.65794373 C153.13916141 281.90709894 153.13818613 274.15626382 153.13529195 266.40541865 C153.13303725 260.10734876 153.13272569 253.80928158 153.13381577 247.5112114 C153.13404561 246.16868768 153.13404561 246.16868768 153.13428011 244.79904228 C153.13459982 242.98103727 153.13492403 241.16303226 153.1352527 239.34502725 C153.13810732 222.27927898 153.13482092 205.21353608 153.12945233 188.14778869 C153.12498584 173.49598404 153.12575899 158.84418732 153.13037109 144.19238281 C153.13571981 127.19247316 153.13783102 110.19256821 153.13475883 93.19265783 C153.13444027 91.3805786 153.1341259 89.56849937 153.13381577 87.75642014 C153.13366149 86.86476534 153.13350721 85.97311055 153.13334826 85.05443592 C153.13248389 78.76298039 153.13394432 72.47152785 153.13629532 66.18007278 C153.13909687 58.51409023 153.13834758 50.84811792 153.13301457 43.18213655 C153.13038215 39.26880645 153.12936476 35.35549345 153.13266373 31.44216347 C153.13563616 27.86207046 153.13401795 24.28201044 153.12868617 20.70192043 C153.12703403 18.78825263 153.13031119 16.87458255 153.13374341 14.96091712 C153.13113566 13.82904955 153.12852791 12.69718198 153.12584114 11.5310154 C153.12567879 10.55242109 153.12551644 9.57382678 153.12534916 8.5655781 C153.07029657 5.72895867 153.07029657 5.72895867 152 2 C76.76 1.505 76.76 1.505 0 1 C0 0.67 0 0.34 0 0 Z " fill="#FABF07" transform="translate(324,17)"/>
<path d="M0 0 C42.24 0 84.48 0 128 0 C128 56.43 128 112.86 128 171 C116 171 116 171 111 169 C110.505 121.48 110.505 121.48 110 73 C108.35 74.32 106.7 75.64 105 77 C102.1875 77.6875 102.1875 77.6875 99 77 C96.06442084 74.93122571 93.54331967 72.52765241 91 70 C90.46503906 69.47921875 89.93007813 68.9584375 89.37890625 68.421875 C88.23736434 67.29650224 87.11591586 66.15078823 86 65 C82.34858644 66.5255906 80.09881888 68.72480909 77.375 71.5625 C72.24899154 76.88435264 72.24899154 76.88435264 67.625 77.3125 C64 77 64 77 61.5625 75.5625 C59.65259368 72.43025363 58.96447594 70.32993213 59.0625 66.66015625 C61.22347539 60.52838858 67.23434394 56.1912243 72 52 C71.60071289 51.534729 71.20142578 51.06945801 70.79003906 50.59008789 C69.76730146 49.39565883 68.74933945 48.19713502 67.734375 46.99609375 C66.61378708 45.7064081 65.45885259 44.44544579 64.265625 43.22265625 C61.38635912 40.19942707 60.10924226 38.57600462 59.3125 34.375 C60.19096844 30.06251857 61.4405557 28.55351439 65 26 C67.8125 25.25 67.8125 25.25 71 26 C73.93296796 28.07270767 76.45647741 30.47214593 79 33 C79.53496094 33.52078125 80.06992187 34.0415625 80.62109375 34.578125 C81.76263566 35.70349776 82.88408414 36.84921177 84 38 C87.65141356 36.4744094 89.90118112 34.27519091 92.625 31.4375 C97.72606012 26.14154888 97.72606012 26.14154888 101.8125 25.6875 C105 26 105 26 110 30 C110.33 20.43 110.66 10.86 111 1 C74.37 1 37.74 1 0 1 C0 0.67 0 0.34 0 0 Z " fill="#8DA800" transform="translate(333,51)"/>
<path d="M0 0 C5.11870887 4.25486931 9.07432365 9.47297095 11.1875 15.8125 C11.1875 22.4125 11.1875 29.0125 11.1875 35.8125 C-17.8525 35.8125 -46.8925 35.8125 -76.8125 35.8125 C-70.21953518 28.12070771 -70.21953518 28.12070771 -67 25.0625 C-63.90125107 22.01667088 -61.14871915 18.83250105 -58.4375 15.4375 C-43.08478253 -3.5493084 -22.89916446 -16.43846531 0 0 Z " fill="#A3C200" transform="translate(449.8125,306.1875)"/>
<path d="M0 0 C6.14130878 3.2986069 10.7585833 8.46366254 15.625 13.375 C16.8934375 14.63183594 16.8934375 14.63183594 18.1875 15.9140625 C28.51352198 26.27265869 28.51352198 26.27265869 29.49609375 31.78125 C29.37915459 37.2072272 29.23823471 41.4218061 26 46 C22.12827625 49.49399461 19.72596082 51.11432842 14.55371094 51.17700195 C13.63225281 51.18983719 12.71079468 51.20267242 11.76141357 51.21589661 C10.26302948 51.22697701 10.26302948 51.22697701 8.734375 51.23828125 C7.70822083 51.246353 6.68206665 51.25442474 5.62481689 51.26274109 C3.44927666 51.27658889 1.27371464 51.28730792 -0.90185547 51.29516602 C-4.22275242 51.31235893 -7.54264885 51.35623722 -10.86328125 51.40039062 C-12.97655518 51.41051919 -15.08983757 51.41903478 -17.203125 51.42578125 C-18.19395081 51.44328934 -19.18477661 51.46079742 -20.20562744 51.47883606 C-25.98526085 51.46073381 -29.47220656 50.96875686 -34 47 C-38.02609788 41.66814064 -39.66077169 37.71784556 -39 31 C-36.07635623 24.75246151 -31.41095231 20.03382148 -26.5 15.3125 C-25.52353516 14.35633789 -25.52353516 14.35633789 -24.52734375 13.38085938 C-23.26460372 12.14490474 -21.99878076 10.91208985 -20.72949219 9.68286133 C-19.19419045 8.18895466 -17.67891262 6.67855789 -16.171875 5.15625 C-11.38015662 0.39900442 -6.70586169 -1.39843093 0 0 Z " fill="#010100" transform="translate(107,205)"/>
<path d="M0 0 C13.87084241 1.38708424 25.50729936 6.50806772 35 17 C35.50789063 17.50402344 36.01578125 18.00804687 36.5390625 18.52734375 C41.29996046 23.49476468 44.39775518 29.04859399 47.64331055 35.05249023 C50.28421647 39.88799182 53.20353408 44.19145273 56.78515625 48.3984375 C58 50 58 50 58 52 C56.48329636 52.79955001 54.96138002 53.58921388 53.4375 54.375 C52.59058594 54.81585938 51.74367188 55.25671875 50.87109375 55.7109375 C44.21340591 58.70010347 38.5597126 59.28218414 31.34765625 59.1953125 C30.54871948 59.19329834 29.74978271 59.19128418 28.92663574 59.18920898 C25.97186455 59.17882709 23.01717587 59.15090514 20.0625 59.125 C13.441875 59.08375 6.82125 59.0425 0 59 C0 39.53 0 20.06 0 0 Z " fill="#5FA816" transform="translate(333,163)"/>
<path d="M0 0 C4.88428285 1.14924302 7.69449555 4.27851303 11.1875 7.75 C11.98994141 8.53117187 11.98994141 8.53117187 12.80859375 9.328125 C13.95013566 10.45349776 15.07158414 11.59921177 16.1875 12.75 C19.83891356 11.2244094 22.08868112 9.02519091 24.8125 6.1875 C29.91356012 0.89154888 29.91356012 0.89154888 34 0.4375 C38.10198247 0.83965514 39.55020753 1.56973555 42.1875 4.75 C43.50500837 8.08252118 43.41630466 10.38929329 42.1875 13.75 C38.76491675 18.27583353 34.43182445 22.01726823 30.1875 25.75 C31.05901615 26.79458319 31.93496967 27.83546407 32.8125 28.875 C33.35390625 29.51953125 33.8953125 30.1640625 34.453125 30.828125 C36.0598729 32.60857538 37.73721874 34.07785684 39.5625 35.625 C42.07010312 38.08628855 42.6744999 39.86911258 42.875 43.375 C42.62940849 46.76187832 42.31370863 47.59780725 40.0625 50.3125 C36.52683859 52.08033071 35.08362263 52.59034017 31.1875 51.75 C28.25192084 49.68122571 25.73081967 47.27765241 23.1875 44.75 C22.65253906 44.22921875 22.11757813 43.7084375 21.56640625 43.171875 C20.42486434 42.04650224 19.30341586 40.90078823 18.1875 39.75 C14.53608644 41.2755906 12.28631888 43.47480909 9.5625 46.3125 C4.43649154 51.63435264 4.43649154 51.63435264 -0.1875 52.0625 C-3.8125 51.75 -3.8125 51.75 -6.25 50.3125 C-8.15990632 47.18025363 -8.84802406 45.07993213 -8.75 41.41015625 C-6.58902461 35.27838858 -0.57815606 30.9412243 4.1875 26.75 C3.78821289 26.284729 3.38892578 25.81945801 2.97753906 25.34008789 C1.95480146 24.14565883 0.93683945 22.94713502 -0.078125 21.74609375 C-1.19871292 20.4564081 -2.35364741 19.19544579 -3.546875 17.97265625 C-6.42614088 14.94942707 -7.70325774 13.32600462 -8.5 9.125 C-7.44599044 3.95077125 -5.13715033 1.36990675 0 0 Z " fill="#F34434" transform="translate(400.8125,76.25)"/>
<path d="M0 0 C5.61 0.33 11.22 0.66 17 1 C17 19.15 17 37.3 17 56 C10.07 52.04 10.07 52.04 3 48 C0.69 47.34 -1.62 46.68 -4 46 C-3.01 45.34 -2.02 44.68 -1 44 C-0.52573374 42.03009759 -0.52573374 42.03009759 -0.56762695 39.73388672 C-0.54783279 38.85312469 -0.52803864 37.97236267 -0.50764465 37.06491089 C-0.50125473 36.11278717 -0.49486481 35.16066345 -0.48828125 34.1796875 C-0.46135445 32.71899338 -0.46135445 32.71899338 -0.43388367 31.22879028 C-0.37959368 28.11090458 -0.34582509 24.99317355 -0.3125 21.875 C-0.27934343 19.7643013 -0.24485534 17.65362306 -0.20898438 15.54296875 C-0.12385648 10.36209048 -0.05713464 5.18125956 0 0 Z " fill="#529113" transform="translate(444,238)"/>
<path d="M0 0 C10.24066584 0.23967516 18.68505766 3.68505766 26 11 C34.62330451 22.48421259 33 25.66075867 33 43 C3.96 43 -25.08 43 -55 43 C-55 42.67 -55 42.34 -55 42 C-31.57 42 -8.14 42 16 42 C16.15311906 24.05253192 16.15311906 24.05253192 9 10 C8.46375 9.30648438 7.9275 8.61296875 7.375 7.8984375 C5.07279597 5.1012596 2.57156795 2.54881071 0 0 Z " fill="#87A100" transform="translate(428,299)"/>
<path d="M0 0 C10.69157875 -0.53223086 20.9145684 6.39889522 28.625 13.375 C29.40875 14.24125 30.1925 15.1075 31 16 C31.50789063 16.50402344 32.01578125 17.00804687 32.5390625 17.52734375 C37.29996046 22.49476468 40.39775518 28.04859399 43.64331055 34.05249023 C46.28421647 38.88799182 49.20353408 43.19145273 52.78515625 47.3984375 C54 49 54 49 54 51 C51.8125 52.75 51.8125 52.75 49 54 C37.36218514 50.72147225 29.14237835 37.86034279 23.51074219 27.9128418 C17.3226276 16.99017246 10.66240084 7.93679587 0 1 C0 0.67 0 0.34 0 0 Z " fill="#529213" transform="translate(337,164)"/>
<path d="M0 0 C6.74201474 2.24733825 6.74201474 2.24733825 9.734375 3.5859375 C10.38664063 3.87525146 11.03890625 4.16456543 11.7109375 4.46264648 C12.38382813 4.76372314 13.05671875 5.0647998 13.75 5.375 C19.78454625 8.04781967 25.84370872 10.61739688 32 13 C29.51101768 15.48898232 27.30571281 16.15849017 24.00390625 17.3828125 C22.80572266 17.82753906 21.60753906 18.27226562 20.37304688 18.73046875 C19.747771 18.95911621 19.12249512 19.18776367 18.47827148 19.42333984 C16.57042585 20.12209712 14.66694201 20.83185683 12.76367188 21.54296875 C3.38534074 25 3.38534074 25 0 25 C0 16.75 0 8.5 0 0 Z " fill="#9FBE00" transform="translate(196,361)"/>
<path d="M0 0 C5.24284116 4.3690343 10.51941304 8.83277764 15 14 C15 14.66 15 15.32 15 16 C5.1 16 -4.8 16 -15 16 C-11.40777239 11.80906779 -8.01936764 7.89786207 -4.125 4.0625 C-3.34382813 3.29035156 -2.56265625 2.51820313 -1.7578125 1.72265625 C-1.17773438 1.15417969 -0.59765625 0.58570313 0 0 Z " fill="#EF4133" transform="translate(102,223)"/>
<path d="M0 0 C0.33 0 0.66 0 1 0 C1 9.57 1 19.14 1 29 C-3.66666667 24.33333333 -8.33333333 19.66666667 -13 15 C-11.00396156 12.66317451 -9.0036279 10.33030636 -7 8 C-6.36578125 7.25878906 -5.7315625 6.51757812 -5.078125 5.75390625 C-4.45421875 5.03074219 -3.8303125 4.30757813 -3.1875 3.5625 C-2.60355469 2.88316406 -2.01960938 2.20382813 -1.41796875 1.50390625 C-0.95003906 1.00761719 -0.48210937 0.51132813 0 0 Z " fill="#A5BE01" transform="translate(443,88)"/>
</svg>
