<svg version="1.1" id="Layer_1" xmlns="http://www.w3.org/2000/svg" xmlns:xlink="http://www.w3.org/1999/xlink" x="0px" y="0px"
	 width="100%" viewBox="0 0 496 496" enable-background="new 0 0 496 496" xml:space="preserve">
<path fill="#3f5353" stroke="none" 
	d="
M263.846161,269.248413 
	C246.264679,271.473572 230.139069,268.455383 215.676544,258.889313 
	C195.095734,245.276413 184.154541,226.098892 183.478302,201.196045 
	C182.558807,167.334183 205.826996,137.768692 238.717529,131.262756 
	C251.213470,128.791016 265.954834,130.130569 273.259033,134.401428 
	C231.352264,128.970718 200.897827,143.204102 188.937729,185.878510 
	C182.004944,210.615082 193.671738,237.702621 212.608505,250.862518 
	C203.200394,242.662613 197.709473,232.024643 193.146255,220.710083 
	C189.862000,212.566757 190.680557,204.080475 190.969849,195.813736 
	C191.858658,170.416092 209.365891,148.381424 233.624069,141.180832 
	C235.589905,140.597321 237.595139,139.427505 239.876587,140.324432 
	C239.496033,142.697464 237.413284,142.404510 236.019714,142.886948 
	C211.803864,151.270355 194.861618,174.515015 194.660065,199.871216 
	C194.638977,202.522156 195.171799,205.173080 195.330704,207.831009 
	C195.504990,210.746094 196.882965,212.097824 200.215546,211.634216 
	C196.930450,203.640152 197.866333,195.441635 199.088104,187.342361 
	C200.125198,180.467331 203.449341,178.378662 210.319305,179.347351 
	C223.547791,181.212585 232.471634,190.424728 233.132233,203.686905 
	C233.399368,209.049606 236.893021,208.427582 240.033264,208.429764 
	C251.683029,208.437836 263.333374,208.099213 274.982697,208.137161 
	C285.640717,208.171860 296.319000,208.200134 306.944794,208.896133 
	C311.258698,209.178696 312.362732,207.305222 312.563934,203.993774 
	C312.937744,197.841217 312.774567,191.688202 311.695221,185.589386 
	C311.248383,183.064575 309.256439,182.156662 307.246094,181.318008 
	C298.863220,177.821030 291.198151,179.969406 284.091827,184.704254 
	C277.222961,189.280884 271.992523,195.560303 267.516510,202.214996 
	C261.409515,201.728775 261.277039,197.934036 262.050873,193.559372 
	C262.746460,189.626953 263.367218,185.703491 265.159943,182.042587 
	C266.839508,178.612869 268.988800,175.476059 270.820099,171.996002 
	C265.224945,174.365234 261.626740,179.039337 257.479065,183.089035 
	C253.184296,187.282364 250.419647,192.653336 246.524216,197.400467 
	C241.431992,185.371643 244.256195,174.965103 251.393051,165.246323 
	C254.428879,161.112198 258.083160,157.534943 262.381195,153.745407 
	C259.507019,153.246597 257.868164,154.500412 256.321106,155.572357 
	C248.624115,160.905533 241.292160,166.612442 236.893799,175.241837 
	C236.229797,176.544571 235.103012,177.634323 234.091644,178.731659 
	C232.624832,180.323090 230.537628,180.257385 230.095276,178.366837 
	C228.810699,172.876862 226.368027,167.103790 229.565674,161.641235 
	C248.506973,129.283890 290.737213,128.506439 311.622406,160.250000 
	C338.952972,201.789993 317.501343,258.443329 267.208984,268.544891 
	C266.229767,268.741577 265.259827,268.984619 263.846161,269.248413 
M205.224655,231.669632 
	C205.332260,234.237091 207.201263,235.880798 208.688156,237.542526 
	C223.500244,254.096176 242.051437,260.425476 263.914642,257.297882 
	C272.146667,256.120300 279.485504,252.640793 286.273315,247.967026 
	C287.660614,247.011765 289.804932,246.247467 288.770905,243.770309 
	C287.936066,241.770370 286.212921,242.068069 284.522247,242.110413 
	C283.039917,242.147522 281.512817,242.127548 280.075867,241.812119 
	C278.211761,241.402954 276.504547,240.572357 276.971039,238.119705 
	C277.655182,234.522766 275.625916,234.520126 273.176331,235.303101 
	C266.529724,237.427673 259.918640,239.663345 253.270798,241.783920 
	C249.648346,242.939438 246.155762,244.768570 242.205673,244.471069 
	C239.955994,244.301651 237.292496,244.815231 235.899857,242.374115 
	C234.455521,239.842407 236.350525,238.024384 237.660141,236.118820 
	C240.326660,232.238922 239.850922,229.750641 235.507278,228.658951 
	C225.311600,226.096466 215.148895,225.800766 205.224655,231.669632 
M302.346710,239.798462 
	C289.113007,257.248901 271.238770,263.713043 249.827484,262.561249 
	C240.024414,262.033936 230.525223,260.680298 221.476807,256.682526 
	C228.503067,261.854248 241.102921,266.030151 254.467300,265.876373 
	C288.802856,265.481354 318.447235,237.008972 319.556885,202.698532 
	C319.712860,197.875519 318.347290,193.407608 314.901703,189.436050 
	C317.473541,207.757980 314.499542,224.586578 302.346710,239.798462 
z"/>
<path fill="#3f5353" stroke="none" 
	d="
M227.297195,329.725098 
	C228.952774,331.803131 230.386078,333.604980 231.970047,335.596283 
	C228.653046,338.405792 226.498367,336.630127 224.645889,334.409912 
	C220.383804,329.301727 216.281494,324.060577 212.051620,318.925018 
	C209.256165,315.531036 196.754745,313.677673 193.114700,316.002258 
	C191.284409,317.171173 191.201965,318.989502 191.190582,320.841736 
	C191.165039,325.001129 191.187042,329.160858 191.147858,333.320068 
	C191.131378,335.067902 190.867432,336.888611 188.604813,336.848907 
	C186.461685,336.811279 185.962845,335.102753 185.965164,333.308685 
	C185.984970,318.002838 186.038712,302.696991 186.061111,287.391144 
	C186.065659,284.286743 187.809418,283.516724 190.580322,283.562744 
	C197.733307,283.681488 204.890396,283.562592 212.042923,283.696075 
	C219.246140,283.830444 224.449066,287.289032 226.544388,293.077515 
	C228.592361,298.735168 226.479324,305.705139 221.298203,310.124298 
	C219.663727,311.518372 217.897888,312.758453 215.825150,314.351013 
	C218.744965,320.084320 223.358917,324.449188 227.297195,329.725098 
M192.707672,309.821564 
	C201.333603,311.170471 209.934570,311.862396 217.570251,306.457184 
	C220.972900,304.048492 223.242569,300.493317 222.304337,296.198822 
	C221.270645,291.467529 217.529938,288.875763 212.925797,288.533386 
	C206.986923,288.091797 200.992233,288.353943 195.022324,288.403503 
	C193.000488,288.420288 191.288696,289.324280 191.325592,291.586090 
	C191.422058,297.499756 190.243576,303.472412 192.707672,309.821564 
z"/>
<path fill="#3f5353" stroke="none" 
	d="
M393.738770,336.194183 
	C376.145386,338.965240 365.671448,336.489868 358.172089,325.089630 
	C352.380310,316.285217 352.041779,306.844574 357.012604,297.596039 
	C361.888092,288.524872 369.663544,283.866852 380.144989,283.615265 
	C388.287750,283.419739 396.169037,283.753357 402.856812,289.224731 
	C410.404999,295.400055 413.833710,303.492310 412.777740,313.039795 
	C411.511505,324.488647 405.238770,332.356018 393.738770,336.194183 
M365.878296,326.643829 
	C369.709930,329.733704 374.028229,331.631226 378.925507,332.386078 
	C395.637146,334.961914 408.962494,323.757202 407.766479,308.045441 
	C406.876984,296.360352 396.863983,288.454132 383.284332,288.273376 
	C372.968842,288.136047 365.147949,292.064178 360.647430,301.448334 
	C356.212769,310.695129 358.871246,318.856964 365.878296,326.643829 
z"/>
<path fill="#3f5353" stroke="none" 
	d="
M328.950043,337.108032 
	C322.959991,337.102417 317.460480,337.161743 311.964081,337.056458 
	C310.105774,337.020874 307.344604,337.564056 307.417816,334.612000 
	C307.483856,331.951935 310.097443,332.660095 311.765808,332.632660 
	C317.762329,332.533997 323.763153,332.673798 329.758850,332.552094 
	C332.407867,332.498322 335.095917,332.257172 337.683075,331.708832 
	C342.933105,330.596100 346.003723,326.578918 345.591492,321.781342 
	C345.179657,316.988495 341.526093,313.547852 336.217255,313.094238 
	C330.579651,312.612457 324.907104,313.391357 319.261749,312.463989 
	C310.192139,310.974030 305.670197,305.574615 306.321381,296.665955 
	C306.934235,288.282501 311.945404,283.763458 320.930786,283.654236 
	C328.427521,283.563110 335.925873,283.594177 343.423523,283.601624 
	C345.067322,283.603271 347.045227,283.364716 347.019989,285.876465 
	C346.996399,288.224701 345.158295,288.319824 343.443878,288.324463 
	C336.446167,288.343353 329.448029,288.282867 322.450684,288.335541 
	C315.029572,288.391449 311.182617,291.745117 311.169037,298.035980 
	C311.155701,304.211395 315.111542,307.638794 322.496643,307.754059 
	C326.661041,307.819061 330.830658,307.660614 334.991882,307.792480 
	C344.692780,308.099915 350.443512,313.892029 350.328674,323.089325 
	C350.221161,331.703003 344.559753,336.859924 334.939972,337.084686 
	C333.108063,337.127472 331.274536,337.102356 328.950043,337.108032 
z"/>
<path fill="#3f5353" stroke="none" 
	d="
M96.075180,336.774445 
	C93.460831,336.518860 93.154816,334.858887 93.152206,333.129242 
	C93.127640,316.845428 93.137611,300.561554 93.137611,283.550720 
	C104.459366,283.961517 115.095192,282.627258 125.570023,284.330933 
	C134.644714,285.806885 138.241577,291.115906 137.533096,299.758392 
	C136.826309,308.380280 130.962524,313.791412 121.411972,314.202667 
	C115.263573,314.467468 109.093285,314.363129 102.936516,314.239471 
	C99.514366,314.170715 98.103943,315.585083 98.209099,318.987854 
	C98.342735,323.311951 98.281685,327.644165 98.211815,331.971375 
	C98.183662,333.715027 98.734024,335.757080 96.075180,336.774445 
M132.664597,299.223450 
	C132.445221,292.936615 130.583633,290.606567 124.510986,289.213470 
	C116.950233,287.478973 109.280975,288.498108 101.658218,288.456909 
	C99.165436,288.443481 98.272339,290.199585 98.270691,292.497528 
	C98.267723,296.654358 98.342857,300.813385 98.230949,304.967346 
	C98.146645,308.096893 99.474846,309.607391 102.629944,309.585693 
	C108.282761,309.546783 113.956253,309.863312 119.583557,309.480011 
	C125.723030,309.061829 130.976776,306.868652 132.664597,299.223450 
z"/>
<path fill="#3f5353"  stroke="none" 
	d="
M262.619446,294.843323 
	C255.045975,306.779053 249.490295,319.445190 242.961624,331.595520 
	C242.410446,332.621307 241.934631,333.688660 241.360046,334.700531 
	C240.107422,336.906464 238.432053,337.776886 235.174149,335.787292 
	C244.406403,317.802399 253.637726,299.819305 262.869049,281.836212 
	C263.423981,281.854065 263.978912,281.871918 264.533875,281.889771 
	C272.860596,299.850647 281.187317,317.811493 289.567963,335.888702 
	C285.389099,338.086029 284.077759,335.800659 282.900513,333.265015 
	C277.575653,321.795807 272.289734,310.308258 266.897186,298.870972 
	C266.064270,297.104431 266.047028,294.318939 262.619446,294.843323 
z"/>
<path fill="##3f5353" stroke="none" 
	d="
M147.118927,299.192261 
	C150.247849,293.198761 153.200516,287.530548 156.108078,281.948975 
	C158.573425,282.849060 158.861267,284.448090 159.471313,285.749908 
	C166.680817,301.134430 173.881699,316.523102 181.009750,331.945404 
	C181.691025,333.419403 183.509415,335.423950 180.905914,336.618835 
	C178.539032,337.705139 177.268692,335.824432 176.372849,333.894470 
	C171.044144,322.414612 165.748413,310.919342 160.384018,299.456207 
	C159.429550,297.416626 158.839554,295.053345 156.381348,293.634155 
	C152.369537,298.595703 150.259155,304.421509 147.374146,309.782593 
	C143.191238,317.555542 139.280640,325.474792 135.228271,333.318390 
	C133.977020,335.740265 132.654449,338.144714 128.274246,335.826599 
	C134.542068,323.636047 140.742386,311.576782 147.118927,299.192261 
z"/>
<path fill="#3f5353" stroke="none" 
	d="
M294.184998,288.528290 
	C294.283386,286.178711 293.831848,283.696686 296.920197,283.895050 
	C299.602142,284.067261 299.186371,286.401428 299.192413,288.129028 
	C299.244263,302.954834 299.241058,317.780914 299.215820,332.606812 
	C299.212769,334.390381 299.481506,336.719788 296.868835,336.780731 
	C293.989685,336.847900 294.093475,334.380768 294.094421,332.409058 
	C294.101257,317.918793 294.165619,303.428497 294.184998,288.528290 
z"/>
<path fill="#3f5353" stroke="none" 
	d="
M149.569580,321.239716 
	C149.234985,315.354584 151.812347,311.884094 156.161880,311.824768 
	C160.405411,311.766876 163.690353,315.259338 163.387573,319.573578 
	C163.162857,322.775574 161.364120,324.739502 158.338089,325.605469 
	C154.321365,326.754883 151.633316,324.976746 149.569580,321.239716 
z"/>
<path fill="#3f5353" stroke="none" 
	d="
M209.434311,175.155228 
	C225.568268,175.958878 234.754456,183.430283 236.920822,197.231628 
	C237.324951,199.806122 237.833984,202.516235 234.693634,205.565079 
	C234.442947,184.722839 222.452499,177.529053 203.897507,178.193665 
	C204.888596,175.068176 207.319397,175.854462 209.434311,175.155228 
z"/>
<path fill="#3f5353" stroke="none" 
	d="
M423.367004,291.354858 
	C419.766541,295.861877 415.990387,296.373047 413.409149,292.969910 
	C411.745697,290.776825 411.596649,288.383972 413.063904,286.003052 
	C414.646179,283.435516 417.189117,283.208771 419.657471,283.930267 
	C423.093079,284.934448 424.051453,287.633362 423.367004,291.354858 
z"/>
</svg>